# xmcd
#
# Track frame offsets:
#	150
#	6765
#	24765
#	43432
#	63102
#	79337
#	93670
#	108780
#	126747
#	140960
#	157435
#	175667
#	193430
#	212490
#
# Disc length: 2987 seconds
#
# Revision: 0
# Processed by: cddbd v1.5.1PL0 Copyright (c) Steve Scherf et al.
# Submitted via: dBpowerAMP V4.0
#
DISCID=d00ba90e
DTITLE=D.A.M.N.Step Into The Real World - Live Positive
DYEAR=1991
DGENRE=Rap
TTITLE0=Introlosophy II
TTITLE1=Funky Swing
TTITLE2=Live Positive
TTITLE3=Mellow Beat
TTITLE4=Da Souls Da Rebel
TTITLE5=A Black And White Thing
TTITLE6=No Way Out
TTITLE7=Terror In The Stage
TTITLE8=Togetherness
TTITLE9=D.A.M.N.`s Back
TTITLE10=Intro - Wise Man Speak
TTITLE11=A Moment In Time
TTITLE12=Time To Act (Live)
TTITLE13=Get Busy
EXTD=
EXTT0=
EXTT1=
EXTT2=
EXTT3=
EXTT4=
EXTT5=
EXTT6=
EXTT7=
EXTT8=
EXTT9=
EXTT10=
EXTT11=
EXTT12=
EXTT13=
PLAYORDER=
